<svg width="200" height="31" viewBox="0 0 200 31" fill="none" xmlns="http://www.w3.org/2000/svg">
<path fill-rule="evenodd" clip-rule="evenodd" d="M166.41 6.39699C164.676 6.39699 163.282 5.00387 163.282 3.21271C163.282 1.44998 164.704 0 166.467 0C168.229 0 169.679 1.39312 169.679 3.15585C169.679 4.94701 168.229 6.39699 166.41 6.39699ZM101.786 25.1046V3.32644H107.046V9.29696C107.046 9.29696 109.377 7.30679 112.419 7.30679C117.565 7.30679 120.607 11.6567 120.607 16.4047C120.607 21.2664 117.508 25.5311 112.59 25.5311C110.287 25.5311 108.581 24.8772 106.96 23.285V25.1046H101.786ZM90.4989 25.5311C85.1254 25.5311 81.4294 22.2615 81.4294 16.4047C81.4294 11.1165 85.2107 7.30679 90.3567 7.30679C95.389 7.30679 98.9429 10.6332 98.9429 16.8596L98.9441 17.0109C98.9454 17.099 98.9477 17.179 98.9499 17.2554V17.2555V17.2557V17.2558V17.2559V17.2561V17.2561V17.2562V17.2562C98.9559 17.4697 98.9612 17.6553 98.9429 17.9116H86.6607C87.1156 19.987 88.7646 20.9821 90.7548 20.9821C92.39 20.9821 93.4944 19.8953 94.3778 18.7702L94.5361 18.5655C94.5361 18.5655 97.1142 20.052 98.3238 20.7787L98.6586 20.9821C97.1233 23.7115 94.1665 25.5311 90.4989 25.5311ZM58.1443 25.1046L51.4915 7.64796H57.0639L60.5325 17.3145L63.7168 7.64796H67.953L71.3079 17.3714L74.7481 7.64796H80.2353L73.6677 25.1046H69.0903L65.8491 15.7224L62.7217 25.1046H58.1443ZM90.2999 11.742C91.9489 11.742 92.8587 12.5381 93.4841 14.2155H86.8597C87.5136 12.595 88.5087 11.742 90.2999 11.742ZM111.225 12.1969C113.613 12.1969 115.348 14.0734 115.348 16.291C115.348 18.7645 114.04 20.84 111.453 20.84C108.695 20.84 106.904 19.1057 106.904 16.4047C106.904 13.8744 108.752 12.1969 111.225 12.1969ZM132.037 25.7017C126.692 25.7017 122.598 21.3233 122.598 16.4616C122.598 11.2303 126.777 7.30679 132.15 7.30679C137.439 7.30679 141.561 11.1165 141.561 16.3763C141.561 21.6929 137.723 25.7017 132.037 25.7017ZM132.122 12.2822C134.595 12.2822 136.301 14.0449 136.301 16.291C136.301 19.0204 134.709 20.6978 132.094 20.6978C129.677 20.6978 127.886 18.8782 127.886 16.5469C127.886 14.1587 129.563 12.2822 132.122 12.2822ZM154.838 25.1046H150.119L142.812 7.64796H148.726L152.535 17.8547L156.118 7.64796H161.69L154.838 25.1046ZM169.082 7.64796H163.794V25.1046H169.082V7.64796ZM171.925 16.4616C171.925 21.3233 176.02 25.7017 181.365 25.7017C187.051 25.7017 190.889 21.6929 190.889 16.3763C190.889 11.1165 186.766 7.30679 181.478 7.30679C176.105 7.30679 171.925 11.2303 171.925 16.4616ZM185.629 16.291C185.629 14.0449 183.923 12.2822 181.45 12.2822C178.891 12.2822 177.214 14.1587 177.214 16.5469C177.214 18.8782 179.005 20.6978 181.421 20.6978C184.037 20.6978 185.629 19.0204 185.629 16.291Z" fill="white"/>
<path d="M196.064 18.8081C197.855 18.8081 199.333 20.2865 199.333 22.0777C199.333 23.8688 197.855 25.3473 196.064 25.3473C194.272 25.3473 192.794 23.8688 192.794 22.0777C192.794 20.2865 194.272 18.8081 196.064 18.8081Z" fill="#EDB91B"/>
<path fill-rule="evenodd" clip-rule="evenodd" d="M28.5056 26.821C27.4944 28.5064 25.0517 28.5064 24.0404 26.821L9.94108 3.32208L38.0064 3.32208C40.0302 3.32208 41.2803 5.52989 40.2391 7.26529L28.5056 26.821Z" fill="#EDB91B"/>
<path fill-rule="evenodd" clip-rule="evenodd" d="M14.0993 26.821C15.1106 28.5064 17.5533 28.5064 18.5646 26.821L32.6639 3.32208L4.59853 3.32208C2.57474 3.32208 1.32469 5.52989 2.36592 7.26529L14.0993 26.821Z" fill="white"/>
<path fill-rule="evenodd" clip-rule="evenodd" d="M9.94116 3.32227H32.6639L21.3033 22.2579L9.94116 3.32227Z" fill="#EEF0E7"/>
</svg>
